<svg width="35" height="35" viewBox="0 0 35 35" fill="none" xmlns="http://www.w3.org/2000/svg">
<path d="M34.6089 0H0.391061C0.287345 0 0.187878 0.0478896 0.114539 0.133133C0.0412011 0.218377 0 0.333993 0 0.454545V34.5455C0 34.666 0.0412011 34.7816 0.114539 34.8669C0.187878 34.9521 0.287345 35 0.391061 35H34.6089C34.7127 35 34.8121 34.9521 34.8855 34.8669C34.9588 34.7816 35 34.666 35 34.5455V0.454545C35 0.333993 34.9588 0.218377 34.8855 0.133133C34.8121 0.0478896 34.7127 0 34.6089 0ZM0.782123 0.909091H5.70168V6.81818H0.782123V0.909091ZM34.2179 34.0909H0.782123V7.72727H34.2179V34.0909ZM34.2179 6.81818H6.4838V0.909091H34.2179V6.81818Z" fill="#00FF7F"/>
<path d="M21.0794 21.9002C21.3581 21.9029 21.6353 21.8538 21.9006 21.7547C22.1839 21.6524 22.4468 21.4857 22.6742 21.2644C22.9016 21.0431 23.089 20.7715 23.2254 20.4654C23.3618 20.1592 23.4446 19.8247 23.4689 19.4811C23.4932 19.1375 23.4586 18.7917 23.3671 18.4638L25.3693 9.77288C25.3947 9.65842 25.3807 9.53697 25.3304 9.43429C25.28 9.33161 25.1972 9.25578 25.0995 9.22288L23.9576 8.86379C23.8596 8.83103 23.7545 8.84406 23.6646 8.9001C23.5748 8.95614 23.5073 9.05076 23.4766 9.16379L21.1967 17.5002C20.768 17.6544 20.3979 17.9754 20.1487 18.4092C19.7107 19.0047 19.4056 19.3547 18.9442 19.2002C18.8766 19.1786 18.8052 19.1785 18.7376 19.2C18.6699 19.2215 18.6085 19.2637 18.5597 19.3223C18.511 19.3808 18.4766 19.4536 18.4603 19.5328C18.444 19.6121 18.4464 19.695 18.4671 19.7729C18.6567 20.4003 19.0106 20.9429 19.4792 21.3244C19.9477 21.706 20.5073 21.9073 21.0794 21.9002ZM24.1062 9.85015L24.4973 9.98652L22.7023 17.8865L21.971 17.6411L24.1062 9.85015ZM20.7431 18.9683C21.0207 18.5956 21.2319 18.3365 21.3688 18.382L22.6436 18.8365C22.748 19.2632 22.7035 19.7205 22.5197 20.1094C22.336 20.4982 22.0279 20.7872 21.6621 20.9138C21.2711 21.0607 20.8502 21.0608 20.4592 20.9139C20.0682 20.7671 19.7269 20.4807 19.4839 20.0956C19.9962 19.8854 20.4374 19.4904 20.7431 18.9683ZM27.5945 20.2274L30.723 15.1638C30.771 15.0864 30.7969 14.9933 30.7969 14.8979C30.7969 14.8024 30.771 14.7094 30.723 14.632L27.5945 9.56379L26.961 10.0956L29.9291 14.8956L26.961 19.7047L27.5945 20.2274ZM17.1844 20.6138L17.8179 20.082L14.6151 14.9002L17.8179 9.72288L17.1844 9.19106L13.8174 14.6456C13.7693 14.723 13.7435 14.8161 13.7435 14.9115C13.7435 15.007 13.7693 15.1 13.8174 15.1774L17.1844 20.6138ZM13.8369 25.7683H32.3146C32.4183 25.7683 32.5178 25.7204 32.5911 25.6352C32.6644 25.55 32.7056 25.4343 32.7056 25.3138V23.182C32.7056 23.0614 32.6644 22.9458 32.5911 22.8606C32.5178 22.7753 32.4183 22.7274 32.3146 22.7274H13.8369C13.7332 22.7274 13.6337 22.7753 13.5604 22.8606C13.4871 22.9458 13.4459 23.0614 13.4459 23.182V25.3138C13.4459 25.4343 13.4871 25.55 13.5604 25.6352C13.6337 25.7204 13.7332 25.7683 13.8369 25.7683ZM14.228 23.6365H31.9235V24.8592H14.228V23.6365ZM13.8369 30.7411H28.7911C28.8948 30.7411 28.9943 30.6932 29.0676 30.6079C29.141 30.5227 29.1822 30.4071 29.1822 30.2865V28.1547C29.1822 28.0341 29.141 27.9185 29.0676 27.8333C28.9943 27.748 28.8948 27.7002 28.7911 27.7002H13.8369C13.7332 27.7002 13.6337 27.748 13.5604 27.8333C13.4871 27.9185 13.4459 28.0341 13.4459 28.1547V30.2865C13.4459 30.4071 13.4871 30.5227 13.5604 30.6079C13.6337 30.6932 13.7332 30.7411 13.8369 30.7411ZM14.228 28.6092H28.4001V29.832H14.228V28.6092ZM2.44531 10.4002V20.3411C2.44531 20.4616 2.48651 20.5772 2.55985 20.6625C2.63319 20.7477 2.73266 20.7956 2.83637 20.7956H11.3928C11.4965 20.7956 11.596 20.7477 11.6693 20.6625C11.7427 20.5772 11.7839 20.4616 11.7839 20.3411V10.4002C11.7839 10.2796 11.7427 10.164 11.6693 10.0787C11.596 9.9935 11.4965 9.94561 11.3928 9.94561H2.83637C2.73266 9.94561 2.63319 9.9935 2.55985 10.0787C2.48651 10.164 2.44531 10.2796 2.44531 10.4002ZM3.22744 10.8547H11.0017V19.8865H3.22744V10.8547ZM11.3928 22.7274H2.83637C2.73266 22.7274 2.63319 22.7753 2.55985 22.8606C2.48651 22.9458 2.44531 23.0614 2.44531 23.182V31.7047C2.44531 31.8253 2.48651 31.9409 2.55985 32.0261C2.63319 32.1114 2.73266 32.1592 2.83637 32.1592H11.3928C11.4965 32.1592 11.596 32.1114 11.6693 32.0261C11.7427 31.9409 11.7839 31.8253 11.7839 31.7047V23.182C11.7839 23.0614 11.7427 22.9458 11.6693 22.8606C11.596 22.7753 11.4965 22.7274 11.3928 22.7274ZM10.333 23.6365L7.11459 26.8456L3.89224 23.6365H10.333ZM3.22744 24.1683L6.51235 27.4456L3.22744 30.7183V24.1683ZM3.89224 31.2502L7.11459 28.0411L10.333 31.2502H3.89224ZM11.0017 30.7183L7.72464 27.4456L11.0135 24.1683L11.0017 30.7183ZM12.828 5.28197C12.8342 5.31835 12.8447 5.35354 12.8593 5.38651C12.8759 5.41339 12.8991 5.43395 12.9258 5.44561C12.9662 5.46115 13.0083 5.47033 13.0509 5.47288H13.4654C13.508 5.47079 13.5502 5.46161 13.5906 5.44561C13.6163 5.43196 13.6381 5.40984 13.6531 5.38197C13.6695 5.35157 13.6802 5.31749 13.6844 5.28197L14.1341 3.10015L14.6112 5.28197C14.6156 5.31888 14.6262 5.35441 14.6425 5.38651C14.6574 5.41534 14.6812 5.43648 14.709 5.44561C14.7494 5.46161 14.7915 5.47079 14.8341 5.47288H15.2252C15.2665 5.47043 15.3073 5.46125 15.3464 5.44561C15.3764 5.43655 15.4026 5.41566 15.4207 5.38651C15.4385 5.35482 15.4505 5.31924 15.4559 5.28197L16.1364 2.28651C16.1489 2.23436 16.1581 2.18118 16.1637 2.12742C16.1649 2.09632 16.1566 2.06572 16.1403 2.04106C16.1172 2.01847 16.0883 2.00565 16.0582 2.0047H15.7336C15.7023 2.00647 15.6717 2.01576 15.6436 2.03197C15.6341 2.03555 15.6253 2.04145 15.6179 2.04929C15.6105 2.05713 15.6046 2.06672 15.6006 2.07742C15.5984 2.1016 15.5984 2.12598 15.6006 2.15015L15.0766 4.77288L14.5174 2.1547C14.512 2.1245 14.5027 2.0954 14.49 2.06833C14.4789 2.045 14.4608 2.02722 14.4392 2.01833C14.4075 2.00634 14.3746 1.99871 14.3414 1.99561H13.9816C13.9479 1.9976 13.9147 2.00685 13.8839 2.02288C13.8627 2.03025 13.8446 2.04643 13.833 2.06833C13.82 2.09484 13.812 2.12429 13.8096 2.1547L13.2816 4.77288L12.7615 2.13651C12.759 2.10816 12.7524 2.0805 12.742 2.0547C12.7324 2.0354 12.7171 2.02084 12.6989 2.01379C12.6679 2.00793 12.6362 2.00793 12.6051 2.01379H12.2492C12.2156 2.01523 12.183 2.02785 12.1554 2.05015C12.1456 2.06116 12.1384 2.07482 12.1343 2.08989C12.1302 2.10497 12.1294 2.12099 12.1319 2.13651C12.1279 2.1864 12.1279 2.23663 12.1319 2.28651L12.828 5.28197ZM18.6079 5.28197C18.6169 5.31797 18.6287 5.35296 18.6431 5.38651C18.659 5.41425 18.6824 5.43504 18.7096 5.44561C18.75 5.46115 18.7921 5.47033 18.8347 5.47288H19.2492C19.2906 5.47087 19.3314 5.46168 19.3705 5.44561C19.3979 5.43326 19.4212 5.41094 19.4369 5.38197C19.4533 5.35157 19.464 5.31749 19.4682 5.28197L19.9179 3.10015L20.395 5.28197C20.3976 5.31936 20.4083 5.35537 20.4263 5.38651C20.4412 5.41534 20.465 5.43648 20.4928 5.44561C20.5332 5.46161 20.5753 5.47079 20.6179 5.47288H21.009C21.0516 5.47033 21.0937 5.46115 21.1341 5.44561C21.1631 5.43412 21.1888 5.4137 21.2084 5.38651C21.2262 5.35482 21.2382 5.31924 21.2436 5.28197L21.9241 2.28651C21.9376 2.23485 21.9455 2.18139 21.9475 2.12742C21.9526 2.11379 21.9552 2.09909 21.9552 2.08424C21.9552 2.06939 21.9526 2.0547 21.9475 2.04106C21.9245 2.01847 21.8956 2.00565 21.8654 2.0047H21.5408C21.5096 2.00647 21.4789 2.01576 21.4509 2.03197C21.4414 2.03555 21.4326 2.04145 21.4252 2.04929C21.4177 2.05713 21.4119 2.06672 21.4079 2.07742C21.4057 2.1016 21.4057 2.12598 21.4079 2.15015L20.8604 4.77288L20.3012 2.1547C20.2958 2.1245 20.2865 2.0954 20.2738 2.06833C20.2636 2.05789 20.2516 2.05013 20.2386 2.04561C20.2055 2.03369 20.1714 2.02607 20.1369 2.02288H19.7967C19.763 2.02545 19.73 2.03467 19.6989 2.05015C19.6889 2.05368 19.6796 2.05952 19.6715 2.06733C19.6634 2.07514 19.6568 2.08476 19.652 2.09561C19.6393 2.12267 19.6301 2.15177 19.6246 2.18197L19.0654 4.77288L18.5453 2.13651C18.5409 2.10863 18.5343 2.08125 18.5258 2.0547C18.5162 2.0354 18.5009 2.02084 18.4827 2.01379C18.4504 2.00751 18.4173 2.00751 18.385 2.01379H18.033C17.9994 2.01523 17.9668 2.02785 17.9392 2.05015C17.9297 2.06153 17.9223 2.07509 17.9176 2.08997C17.9129 2.10484 17.9109 2.1207 17.9118 2.13651C17.9118 2.17288 17.9196 2.22288 17.9353 2.28651L18.6079 5.28197ZM24.3917 5.28197C24.4007 5.31797 24.4125 5.35296 24.4269 5.38651C24.4428 5.41425 24.4662 5.43504 24.4934 5.44561C24.5337 5.46161 24.5759 5.47079 24.6185 5.47288H25.033C25.0743 5.47043 25.1151 5.46125 25.1543 5.44561C25.1811 5.43204 25.2041 5.40999 25.2207 5.38197C25.2354 5.35063 25.2459 5.31692 25.252 5.28197L25.7135 3.10015L26.1867 5.28197C26.1928 5.31835 26.2033 5.35354 26.2179 5.38651C26.2346 5.41339 26.2577 5.43395 26.2844 5.44561C26.3249 5.46115 26.367 5.47033 26.4096 5.47288H26.8006C26.8432 5.47033 26.8853 5.46115 26.9258 5.44561C26.9541 5.43531 26.9788 5.41457 26.9962 5.38651C27.0153 5.35519 27.0286 5.31959 27.0353 5.28197L27.7157 2.28651C27.7293 2.23485 27.7371 2.18139 27.7392 2.12742C27.7442 2.11379 27.7468 2.09909 27.7468 2.08424C27.7468 2.06939 27.7442 2.0547 27.7392 2.04106C27.7153 2.02007 27.6868 2.00745 27.657 2.0047H27.3168C27.2844 2.00724 27.2526 2.01647 27.223 2.03197C27.2045 2.04086 27.1893 2.05693 27.1799 2.07742C27.1777 2.1016 27.1777 2.12598 27.1799 2.15015L26.6442 4.77288L26.0889 2.1547C26.0835 2.1245 26.0742 2.0954 26.0615 2.06833C26.0494 2.04593 26.0317 2.02846 26.0107 2.01833C25.9776 2.00642 25.9435 1.9988 25.909 1.99561H25.5688C25.5351 1.99818 25.502 2.0074 25.471 2.02288C25.4504 2.03154 25.4327 2.04742 25.4202 2.06833C25.4107 2.09646 25.4028 2.12532 25.3967 2.1547L24.8492 4.77288L24.3291 2.13651C24.3327 2.1094 24.3327 2.08181 24.3291 2.0547C24.3241 2.04453 24.3173 2.03566 24.3093 2.02863C24.3012 2.0216 24.292 2.01655 24.2822 2.01379C24.2512 2.00702 24.2193 2.00702 24.1883 2.01379H23.8364C23.8027 2.01523 23.7702 2.02785 23.7425 2.05015C23.733 2.06153 23.7257 2.07509 23.721 2.08997C23.7163 2.10484 23.7143 2.1207 23.7151 2.13651C23.7193 2.18719 23.7272 2.23737 23.7386 2.28651L24.3917 5.28197Z" fill="#00FF7F"/>
</svg>
