<svg width="34" height="34" viewBox="0 0 34 34" fill="none" xmlns="http://www.w3.org/2000/svg">
<path d="M12.6148 9.88068C12.9438 9.88068 13.1632 9.66141 13.1632 9.33251V8.23618C13.1632 5.00201 16.0148 2.15155 17.0019 1.27448C17.4406 1.6582 18.2083 2.42563 18.9212 3.35751C19.0858 3.57678 19.4696 3.6316 19.689 3.46715C19.9083 3.3027 19.9632 2.91898 19.7987 2.69971C18.5922 1.11003 17.3858 0.123337 17.3309 0.123337C17.1116 -0.0411124 16.8374 -0.0411124 16.6729 0.123337C16.4535 0.287787 12.0664 3.79604 12.0664 8.23618V9.33251C12.0664 9.66141 12.2858 9.88068 12.6148 9.88068Z" fill="#00FF7F"/>
<path d="M17 4.39924C16.5065 4.39924 16.0677 4.50887 15.629 4.78295C15.3548 4.9474 15.3 5.2763 15.4097 5.55039C15.5742 5.82447 15.9032 5.87929 16.1774 5.76965C16.4516 5.6052 16.7258 5.55039 17 5.55039C17.9323 5.55039 18.6452 6.263 18.6452 7.19488C18.6452 8.12676 17.9323 8.83938 17 8.83938C16.0677 8.83938 15.3548 8.12676 15.3548 7.19488C15.3548 6.86598 15.1355 6.64672 14.8065 6.64672C14.4774 6.64672 14.2581 6.86598 14.2581 7.19488C14.2581 8.72975 15.4645 9.93571 17 9.93571C18.5355 9.93571 19.7419 8.72975 19.7419 7.19488C19.7419 5.66002 18.5355 4.39924 17 4.39924ZM26.871 7.68823C27.2 7.68823 27.4194 7.46897 27.4194 7.14007C27.4194 6.81117 27.2 6.5919 26.871 6.5919C26.5419 6.5919 26.3226 6.37263 26.3226 6.04374C26.3226 5.71484 26.5419 5.49557 26.871 5.49557C27.2 5.49557 27.4194 5.2763 27.4194 4.9474C27.4194 4.61851 27.6387 4.39924 27.9677 4.39924H28.0226C28.2968 4.50887 28.6258 4.45406 28.7355 4.17997C29.0097 3.63181 29.5581 3.30291 30.1613 3.30291C31.0935 3.30291 31.8065 4.01552 31.8065 4.9474C31.8065 5.2763 32.0258 5.49557 32.3548 5.49557C32.6839 5.49557 32.9032 5.71484 32.9032 6.04374C32.9032 6.37263 32.6839 6.5919 32.3548 6.5919H29.0645C28.7355 6.5919 28.5161 6.81117 28.5161 7.14007C28.5161 7.46897 28.7355 7.68823 29.0645 7.68823H32.3548C33.2871 7.68823 34 6.97562 34 6.04374C34 5.33112 33.5065 4.67332 32.8484 4.45406C32.629 3.19328 31.5323 2.20658 30.1613 2.20658C29.2839 2.20658 28.4613 2.59029 27.9677 3.30291C27.2 3.30291 26.5968 3.79626 26.3774 4.45406C25.7194 4.67332 25.2258 5.2763 25.2258 6.04374C25.2258 6.97562 25.9387 7.68823 26.871 7.68823ZM7.67742 14.8144C7.67742 15.7463 8.39032 16.4589 9.32258 16.4589H14.8065C15.7387 16.4589 16.4516 15.7463 16.4516 14.8144C16.4516 14.1018 15.9581 13.444 15.3 13.2247C15.0806 11.9639 13.9839 10.9772 12.6129 10.9772C12.2839 10.9772 12.0645 11.1965 12.0645 11.5254C12.0645 11.8543 12.2839 12.0736 12.6129 12.0736C13.5452 12.0736 14.2581 12.7862 14.2581 13.7181C14.2581 14.0469 14.4774 14.2662 14.8065 14.2662C15.1355 14.2662 15.3548 14.4855 15.3548 14.8144C15.3548 15.1433 15.1355 15.3625 14.8065 15.3625H9.32258C8.99355 15.3625 8.77419 15.1433 8.77419 14.8144C8.77419 14.4855 8.99355 14.2662 9.32258 14.2662C9.65161 14.2662 9.87097 14.0469 9.87097 13.7181C9.87097 13.3892 10.0903 13.1699 10.4194 13.1699H10.4742C10.7484 13.2795 11.0774 13.1699 11.1871 12.9506C11.2968 12.6765 11.1871 12.3476 10.9677 12.238C10.6935 12.0736 10.5839 12.0736 10.4194 12.0736C9.65161 12.0736 9.04839 12.5669 8.82903 13.2247C8.17097 13.444 7.67742 14.0469 7.67742 14.8144ZM1.64516 5.49557H4.99032C5.31936 5.49557 5.53871 5.2763 5.53871 4.9474C5.53871 4.61851 5.31936 4.39924 4.99032 4.39924H1.64516C1.31613 4.39924 1.09677 4.17997 1.09677 3.85107C1.09677 3.52217 1.31613 3.30291 1.64516 3.30291C1.97419 3.30291 2.19355 3.08364 2.19355 2.75474C2.19355 2.42584 2.4129 2.20658 2.74194 2.20658H2.79677C3.07097 2.31621 3.4 2.26139 3.50968 1.98731C3.78387 1.43915 4.33226 1.11025 4.93548 1.11025C5.86774 1.11025 6.58065 1.82286 6.58065 2.75474C6.58065 3.08364 6.8 3.30291 7.12903 3.30291C7.45806 3.30291 7.67742 3.52217 7.67742 3.85107C7.67742 4.17997 7.45806 4.39924 7.12903 4.39924C6.8 4.39924 6.58065 4.61851 6.58065 4.9474C6.58065 5.2763 6.8 5.49557 7.12903 5.49557C8.06129 5.49557 8.77419 4.78295 8.77419 3.85107C8.77419 3.13846 8.28065 2.48066 7.62258 2.26139C7.40323 1.00061 6.30645 0.013916 4.93548 0.013916C4.05806 0.013916 3.23548 0.397632 2.74194 1.11025C2.02903 1.11025 1.37097 1.6036 1.15161 2.26139C0.493548 2.48066 0 3.08364 0 3.85107C0 4.78295 0.712903 5.49557 1.64516 5.49557Z" fill="#00FF7F"/>
<path d="M21.5516 28.5181C21.771 28.5181 21.9903 28.3536 22.0452 28.1343C22.429 27.038 23.471 26.3254 24.6774 26.3254C25.0613 26.3254 25.3903 26.435 25.7194 26.5447C25.8839 26.5995 25.9935 26.5447 26.1581 26.4898C26.2677 26.435 26.3774 26.3254 26.4323 26.1609C26.7613 24.955 27.8581 24.1327 29.0645 24.1327C29.7226 24.1327 30.3806 24.4068 30.929 24.8453C31.1484 25.0646 31.4774 25.0098 31.6968 24.7905C31.9161 24.5713 31.8613 24.2424 31.6419 24.0231C30.929 23.3653 29.9968 23.0364 29.0645 23.0364C27.529 23.0364 26.1581 23.9683 25.5548 25.3387C25.2806 25.2839 25.0065 25.2291 24.6774 25.2291C23.1419 25.2291 21.8258 26.1061 21.1677 27.4217C20.6742 27.4765 20.1806 27.5862 19.7419 27.8603V27.038L21.6613 24.1327H24.6774C25.0065 24.1327 25.2258 23.9135 25.2258 23.5846V21.3919C25.2258 21.2275 25.1161 21.063 25.0065 20.9534L21.9355 18.9252V8.23593C21.9355 7.19442 21.6613 6.09809 21.2226 5.05657C21.1129 4.78249 20.7839 4.67286 20.5097 4.78249C20.2355 4.89212 20.1258 5.22102 20.2355 5.49511C20.6742 6.42699 20.8935 7.35887 20.8935 8.23593V23.0364H17.6032V19.1992C17.6032 18.8703 17.3839 18.6511 17.0548 18.6511C16.7258 18.6511 16.5065 18.8703 16.5065 19.1992V23.0364H13.2161V17.9933C13.2161 17.6644 12.9968 17.4451 12.6677 17.4451C12.3387 17.4451 12.1194 17.6644 12.1194 17.9933V18.9252L9.04839 20.9534C8.88387 21.063 8.77419 21.2275 8.77419 21.3919V23.5846C8.77419 23.9135 8.99355 24.1327 9.32258 24.1327H12.3387L14.2581 27.038V27.8054C13.8194 27.5862 13.3258 27.4217 12.8323 27.4217C12.1742 26.1061 10.8032 25.2291 9.32258 25.2291C8.99355 25.2291 8.71935 25.2291 8.44516 25.3387C7.84194 23.9683 6.47097 23.0364 4.93548 23.0364C2.79677 23.0364 1.09677 24.7357 1.09677 26.8736C1.09677 27.1476 1.15161 27.4217 1.20645 27.641V27.7506C1.26129 28.0247 1.53548 28.244 1.86452 28.1892C2.13871 28.1343 2.35806 27.8603 2.30323 27.5314V27.4217C2.24839 27.2025 2.19355 27.038 2.19355 26.8736C2.19355 25.3387 3.4 24.1327 4.93548 24.1327C6.14194 24.1327 7.23871 24.955 7.56774 26.1609C7.62258 26.3254 7.73226 26.435 7.84194 26.4898C8.00645 26.5447 8.17097 26.5447 8.28065 26.4898C8.55484 26.3802 8.88387 26.3254 9.26774 26.3254C10.4194 26.3254 11.4613 27.0928 11.9 28.1892C11.9548 28.4084 12.1742 28.5181 12.3935 28.5181H12.5032C13.2161 28.5181 13.8742 28.7921 14.3677 29.2855C14.4774 29.3951 14.5871 29.4499 14.7516 29.4499C14.8065 29.4499 14.9161 29.4499 14.971 29.3951C15.1903 29.2855 15.3 29.121 15.3 28.9018V27.4217H18.5903V28.9018C18.5903 29.121 18.7 29.3403 18.9194 29.3951C19.1387 29.5047 19.3581 29.4499 19.5226 29.2855C19.9065 28.9018 20.5645 28.5181 21.3871 28.5181H21.5516ZM21.9355 20.2408L24.129 21.7208V23.0364H21.9355V20.2408ZM12.0645 23.0364H9.87097V21.666L12.0645 20.1859V23.0364ZM18.9194 26.3254H15.1355L13.6548 24.1327H20.4L18.9194 26.3254ZM14.8613 32.9034H3.83871C2.30323 32.9034 1.09677 31.6974 1.09677 30.1625C1.09677 29.9433 1.15161 29.724 1.20645 29.5047C1.26129 29.2307 1.09677 28.9018 0.822581 28.8469C0.548387 28.7921 0.219355 28.9566 0.164516 29.2307C0.0548387 29.5047 0 29.8336 0 30.1625C0 32.3004 1.7 33.9997 3.83871 33.9997H14.8613C15.1903 33.9997 15.4097 33.7804 15.4097 33.4515C15.4097 33.1226 15.1355 32.9034 14.8613 32.9034ZM17.9323 32.9034H17C16.671 32.9034 16.4516 33.1226 16.4516 33.4515C16.4516 33.7804 16.671 33.9997 17 33.9997H17.9323C18.2613 33.9997 18.4806 33.7804 18.4806 33.4515C18.4806 33.1226 18.2613 32.9034 17.9323 32.9034ZM32.5742 27.2025C32.3548 27.038 31.971 27.038 31.8065 27.3121C31.6419 27.5314 31.6419 27.9151 31.9161 28.0795C32.5742 28.5729 32.9032 29.3403 32.9032 30.1625C32.9032 31.6974 31.6968 32.9034 30.1613 32.9034H20.3452C20.0161 32.9034 19.7968 33.1226 19.7968 33.4515C19.7968 33.7804 20.0161 33.9997 20.3452 33.9997H30.1613C32.3 33.9997 34 32.3004 34 30.1625C34 29.0114 33.5065 27.9151 32.5742 27.2025Z" fill="#00FF7F"/>
<path d="M4.66118 31.8074H7.9515C8.28053 31.8074 8.49989 31.5882 8.49989 31.2593C8.49989 30.9304 8.28053 30.7111 7.9515 30.7111H4.66118C4.05795 30.7111 3.50956 30.3822 3.23537 29.8889C3.07085 29.6148 2.74182 29.56 2.46763 29.6696C2.19343 29.834 2.1386 30.1629 2.24827 30.437C2.74182 31.2593 3.67408 31.8074 4.66118 31.8074ZM11.2418 31.8074C11.5709 31.8074 11.7902 31.5882 11.7902 31.2593C11.7902 30.9304 11.5709 30.7111 11.2418 30.7111H10.145C9.81601 30.7111 9.59666 30.9304 9.59666 31.2593C9.59666 31.5882 9.81601 31.8074 10.145 31.8074H11.2418ZM19.1934 15.3625C18.8644 15.3625 18.645 15.5817 18.645 15.9106V21.3923C18.645 21.7212 18.8644 21.9405 19.1934 21.9405C19.5225 21.9405 19.7418 21.7212 19.7418 21.3923V15.9106C19.7418 15.5817 19.5225 15.3625 19.1934 15.3625ZM19.7418 12.6217C19.7418 12.2928 19.5225 12.0735 19.1934 12.0735C18.8644 12.0735 18.645 12.2928 18.645 12.6217V13.718C18.645 14.0469 18.8644 14.2661 19.1934 14.2661C19.5225 14.2661 19.7418 14.0469 19.7418 13.718V12.6217Z" fill="#00FF7F"/>
</svg>
